<?xml version="1.0" standalone="no"?>
<!DOCTYPE svg PUBLIC "-//W3C//DTD SVG 20010904//EN"
 "http://www.w3.org/TR/2001/REC-SVG-20010904/DTD/svg10.dtd">
<svg version="1.0" xmlns="http://www.w3.org/2000/svg"
 width="413.000000pt" height="413.000000pt" viewBox="0 0 413.000000 413.000000"
 preserveAspectRatio="xMidYMid meet">
<metadata>
Created by potrace 1.14, written by Peter Selinger 2001-2017
</metadata>
<g transform="translate(0.000000,413.000000) scale(0.100000,-0.100000)"
fill="#000000" stroke="none">
<path d="M1876 3635 c-3 -9 0 -15 9 -15 9 0 12 6 9 15 -4 8 -7 15 -9 15 -2 0
-5 -7 -9 -15z"/>
<path d="M2322 3629 c-7 -11 -17 -17 -22 -14 -6 3 -10 -3 -10 -15 0 -12 -4
-18 -10 -15 -5 3 -10 1 -10 -4 0 -6 -7 -11 -15 -11 -8 0 -15 -4 -15 -10 0 -5
-7 -10 -15 -10 -8 0 -15 -4 -15 -9 0 -5 -10 -13 -22 -17 -13 -4 -25 -9 -28
-13 -3 -3 -30 -19 -60 -35 -30 -16 -63 -36 -72 -44 -10 -8 -18 -11 -18 -7 0 4
-16 -8 -35 -28 -19 -20 -35 -43 -35 -52 0 -8 -4 -15 -9 -15 -12 0 -5 -89 10
-116 16 -31 76 -69 119 -77 58 -11 144 -21 168 -20 12 1 22 -3 22 -8 0 -5 10
-9 23 -9 13 0 27 -3 31 -7 4 -5 11 -8 16 -8 17 0 70 -46 65 -56 -4 -5 -2 -9 3
-9 6 0 13 -7 16 -16 4 -10 2 -13 -7 -8 -9 6 -9 4 -1 -7 8 -12 12 -53 4 -61 -1
-2 -4 -12 -6 -23 -7 -32 -10 -38 -28 -79 -9 -22 -19 -50 -22 -63 -4 -13 -10
-26 -15 -29 -5 -3 -7 -10 -4 -15 4 -5 2 -9 -2 -9 -5 0 -10 -10 -11 -22 -5 -53
-3 -145 3 -173 4 -16 7 -35 7 -42 1 -7 5 -10 10 -7 5 3 6 9 3 14 -3 5 -1 11 5
15 6 4 8 10 5 15 -3 5 -1 29 6 52 13 49 17 68 18 85 1 6 7 18 14 25 6 7 13 20
15 28 5 27 47 110 55 110 4 0 6 4 3 8 -3 5 3 20 12 33 23 33 48 77 68 119 8
19 20 43 25 52 17 33 11 113 -12 142 -11 14 -24 24 -29 21 -5 -3 -10 -1 -12 5
-2 6 -22 11 -46 13 -23 1 -42 5 -42 8 0 5 -37 4 -50 -1 -3 -1 -9 -1 -15 0 -5
1 -33 3 -61 5 -59 5 -98 18 -122 42 -23 24 -45 75 -35 82 4 3 9 15 11 25 5 25
67 107 76 99 3 -3 6 1 6 10 0 10 4 17 8 17 5 0 15 11 22 25 7 14 20 25 27 25
8 0 12 4 9 9 -3 5 1 14 9 21 8 7 12 16 9 21 -3 5 -1 9 4 9 9 0 25 41 19 47 -2
1 -8 -7 -15 -18z"/>
<path d="M1853 3600 c2 -4 -39 -45 -76 -75 -27 -23 -123 -78 -134 -78 -7 0
-13 -4 -13 -9 0 -5 -19 -18 -42 -29 -47 -22 -125 -65 -160 -89 -26 -18 -111
-100 -103 -100 3 0 1 -9 -5 -21 -6 -11 -12 -37 -13 -57 -1 -20 -6 -43 -11 -51
-7 -10 -6 -12 4 -6 10 6 12 4 7 -8 -4 -10 -2 -17 4 -17 6 0 9 -7 5 -15 -3 -8
0 -15 6 -15 6 0 9 -3 5 -6 -3 -4 0 -13 8 -20 7 -8 15 -17 17 -21 1 -5 21 -20
43 -34 45 -29 106 -47 180 -53 28 -2 50 -5 50 -6 0 -1 8 -3 18 -5 11 -2 21 -6
24 -9 3 -2 16 -1 29 4 15 6 26 6 29 -1 4 -5 15 -7 26 -4 11 4 19 2 19 -4 0 -6
8 -11 19 -11 53 0 181 -77 181 -109 0 -6 4 -11 9 -11 5 0 8 -36 5 -82 -5 -103
-6 -108 -14 -108 -4 0 -7 -7 -8 -15 -1 -8 -3 -22 -4 -30 -1 -8 -5 -15 -10 -15
-5 0 -6 -4 -3 -10 3 -5 1 -10 -5 -10 -6 0 -9 -4 -5 -9 3 -5 -1 -15 -8 -23 -8
-7 -12 -19 -9 -26 2 -6 -1 -12 -8 -12 -6 0 -8 -4 -5 -10 3 -5 0 -11 -7 -12 -7
0 -22 -2 -33 -3 -11 -1 -22 -3 -25 -5 -17 -7 -50 -5 -50 3 0 6 -5 6 -12 0 -7
-5 -22 -9 -33 -9 -11 1 -23 -3 -27 -9 -5 -6 -8 -5 -8 3 0 8 -5 10 -12 5 -14
-8 -23 -9 -100 -17 -26 -2 -51 -7 -55 -9 -5 -3 -27 -8 -49 -11 -41 -7 -52 -9
-118 -25 -22 -5 -44 -8 -48 -5 -4 3 -8 0 -8 -6 0 -6 -4 -8 -10 -5 -5 3 -10 2
-10 -3 0 -5 -7 -9 -15 -10 -8 -1 -22 -3 -30 -4 -8 -1 -15 -5 -15 -10 0 -5 -4
-7 -9 -4 -5 4 -12 0 -14 -6 -4 -9 -6 -10 -6 -1 -1 9 -8 8 -28 -3 -16 -7 -33
-14 -39 -14 -7 0 -14 -7 -17 -15 -4 -8 -15 -12 -27 -10 -13 2 -20 -1 -20 -11
0 -8 -4 -13 -9 -10 -5 3 -21 -6 -37 -21 -16 -15 -30 -26 -31 -25 -6 5 -41 -37
-36 -42 4 -3 2 -6 -4 -6 -16 0 -36 -56 -37 -103 -1 -23 -4 -47 -8 -53 -4 -6
-4 -14 0 -18 4 -4 8 -26 9 -49 5 -132 8 -187 13 -187 3 0 6 -19 7 -42 2 -39 9
-83 13 -83 1 0 3 -9 5 -20 6 -42 16 -89 21 -97 3 -4 -1 -8 -8 -8 -8 0 -6 -5 5
-11 9 -6 15 -15 11 -20 -3 -5 0 -17 8 -26 11 -14 11 -16 -1 -8 -11 6 -11 3 2
-14 8 -13 13 -30 10 -37 -3 -8 1 -14 8 -14 7 0 10 -3 6 -6 -3 -4 0 -19 8 -34
8 -15 11 -30 8 -34 -4 -3 -1 -6 6 -6 7 0 9 -5 6 -10 -4 -6 -1 -17 5 -25 10
-11 7 -15 -14 -21 -14 -3 -26 -10 -26 -16 0 -5 -4 -7 -9 -4 -5 3 -21 -1 -37
-8 -16 -8 -36 -16 -44 -18 -8 -2 -21 -9 -28 -16 -7 -6 -22 -12 -33 -12 -10 0
-19 -4 -19 -8 0 -5 -18 -17 -40 -27 -22 -10 -40 -23 -40 -28 0 -6 -3 -8 -6 -4
-3 3 -15 -3 -27 -13 -12 -11 -26 -21 -32 -22 -21 -6 -96 -95 -116 -137 -35
-72 -35 -74 -33 -121 2 -53 13 -90 26 -90 5 0 6 -4 3 -10 -3 -5 -1 -10 5 -10
6 0 9 -4 6 -9 -3 -5 1 -12 10 -15 8 -3 13 -9 10 -14 -2 -4 9 -17 25 -27 16
-11 29 -23 29 -27 0 -5 5 -8 12 -8 6 0 26 -11 43 -25 18 -13 35 -21 39 -18 3
4 6 2 6 -4 0 -6 7 -14 16 -17 10 -4 13 -2 8 7 -4 6 2 4 13 -6 11 -9 27 -17 36
-17 9 0 17 -4 17 -10 0 -5 8 -10 18 -10 9 0 37 -7 62 -16 25 -9 55 -16 68 -16
12 0 22 -5 22 -10 0 -5 5 -6 10 -3 6 3 16 3 23 -2 14 -9 31 -12 74 -16 18 -1
33 -5 33 -9 0 -10 1315 -10 1324 0 4 4 22 8 39 9 18 0 32 2 32 3 0 1 11 4 25
5 41 6 93 16 135 27 22 5 49 9 60 9 10 0 25 5 32 11 7 5 20 8 28 4 9 -3 14 -2
11 3 -3 5 13 12 37 16 23 4 49 10 57 12 8 2 21 5 28 5 6 1 12 5 12 10 0 4 3 7
8 6 4 -1 25 4 46 10 22 6 43 9 48 6 4 -3 8 -1 8 3 0 9 90 45 101 41 4 -2 17 6
30 17 12 11 19 14 15 7 -4 -6 9 -3 28 9 20 12 36 17 36 12 0 -4 5 0 11 10 6 9
14 15 19 12 5 -3 11 -1 15 5 4 6 11 8 16 5 5 -4 9 1 9 10 0 10 5 13 12 9 7 -4
8 -3 4 4 -5 8 -13 9 -25 2 -10 -5 -21 -6 -25 -3 -3 3 -6 1 -6 -6 0 -7 -4 -9
-10 -6 -5 3 -16 3 -22 -2 -13 -8 -124 -38 -183 -49 -16 -3 -34 -11 -38 -17 -6
-9 -10 -9 -14 1 -4 10 -8 10 -18 2 -8 -6 -26 -12 -42 -14 -15 -1 -34 -5 -41
-9 -6 -5 -12 -6 -12 -3 0 2 -26 -2 -57 -9 -32 -7 -78 -16 -103 -19 -25 -3 -56
-8 -70 -11 -14 -2 -43 -7 -65 -10 -22 -2 -62 -8 -90 -11 -27 -4 -65 -8 -82 -8
-18 0 -33 -3 -33 -6 0 -3 -15 -6 -32 -7 -18 0 -64 -4 -103 -8 -38 -4 -77 -7
-85 -7 -8 -1 -18 -6 -22 -12 -6 -8 -8 -7 -8 1 0 7 -9 10 -22 7 -13 -3 -76 -7
-141 -9 -65 -3 -122 -7 -127 -10 -5 -3 -12 -1 -15 5 -5 8 -11 7 -21 -1 -11 -9
-14 -8 -14 2 0 9 -3 10 -8 4 -8 -11 -67 -14 -77 -3 -4 4 -16 3 -26 -3 -12 -6
-19 -6 -19 0 0 6 -11 6 -29 1 -16 -4 -32 -6 -35 -3 -3 4 -34 7 -68 8 -35 2
-88 5 -118 9 -30 3 -84 8 -120 11 -62 5 -105 12 -105 15 0 1 -13 3 -30 5 -16
2 -43 6 -60 10 -16 3 -39 7 -50 8 -11 1 -23 7 -27 12 -5 6 -8 5 -8 -4 0 -11
-3 -11 -16 -1 -8 8 -27 15 -41 16 -14 2 -33 6 -42 10 -9 4 -25 9 -36 11 -44 8
-137 47 -142 59 -2 7 -11 10 -19 7 -8 -3 -14 0 -14 6 0 6 -6 11 -14 11 -18 0
-88 65 -79 74 3 3 2 6 -4 6 -6 0 -15 13 -21 28 -8 23 -6 37 12 70 28 55 93
126 99 109 4 -9 6 -9 6 0 1 13 91 79 91 66 0 -4 4 -3 8 3 9 13 119 67 138 67
8 0 14 4 14 8 0 8 32 19 74 26 18 3 26 1 21 -6 -3 -6 -3 -11 2 -11 7 0 46 -60
44 -67 0 -3 40 -52 72 -85 15 -16 27 -34 27 -39 0 -6 5 -7 10 -4 5 3 10 -1 10
-10 0 -9 4 -14 9 -11 5 4 11 3 13 -1 7 -17 141 -93 163 -93 11 0 -12 42 -40
73 -19 20 -32 37 -30 37 5 0 -4 11 -48 63 -10 12 -26 34 -35 49 -9 16 -19 28
-23 28 -4 0 -12 14 -19 30 -7 17 -16 30 -21 30 -5 0 -9 9 -9 20 0 11 -4 20
-10 20 -5 0 -10 9 -10 19 0 10 -8 22 -17 25 -13 5 -14 9 -5 15 10 6 10 11 -3
21 -8 7 -15 19 -15 26 0 7 -8 28 -18 46 -11 18 -18 41 -16 51 1 9 -2 17 -7 17
-6 0 -7 4 -4 10 3 5 1 10 -5 10 -7 0 -10 6 -7 14 3 8 3 17 -1 21 -4 4 -7 10
-8 13 0 4 -3 14 -6 22 -15 38 -40 152 -53 237 -2 12 -6 27 -10 32 -3 6 0 11 7
11 10 0 10 2 1 8 -6 4 -14 38 -17 75 -5 55 -3 67 9 67 8 0 15 -5 15 -12 0 -6
3 -9 6 -5 3 3 26 -3 50 -13 24 -11 44 -16 44 -13 0 4 5 2 12 -5 7 -7 26 -12
43 -12 18 0 35 -3 39 -7 7 -7 24 -11 69 -15 15 -1 27 -5 27 -8 0 -3 29 -6 65
-7 36 -2 83 -7 105 -12 25 -6 40 -5 40 1 0 5 5 6 11 2 16 -10 300 -11 306 -1
3 4 11 3 18 -3 8 -7 19 -9 25 -5 10 6 113 16 198 18 17 1 32 4 32 7 0 3 19 6
43 7 23 1 58 4 77 8 19 3 46 7 60 9 14 2 41 8 60 13 19 6 43 9 53 7 9 -1 17 2
17 6 0 5 8 8 18 8 23 -1 75 10 109 23 15 6 30 10 33 10 12 -1 88 21 117 35 17
8 38 14 47 14 9 0 16 7 16 15 0 8 -5 15 -11 15 -5 0 -7 -4 -4 -10 4 -6 -2 -7
-17 -1 -13 5 -33 5 -46 0 -29 -11 -65 -17 -135 -25 -28 -3 -68 -7 -87 -9 -19
-2 -55 -6 -80 -9 -25 -3 -67 -8 -95 -11 -86 -10 -187 -17 -265 -19 -42 -1 -81
-5 -88 -10 -6 -4 -12 -3 -12 1 0 10 -41 10 -57 0 -7 -4 -15 -3 -18 3 -5 8 -11
7 -21 -1 -11 -9 -14 -9 -14 0 0 9 -5 9 -20 1 -14 -8 -20 -8 -20 0 0 7 -6 8
-19 1 -10 -6 -21 -7 -25 -4 -11 11 -36 12 -36 2 0 -6 -8 -5 -20 1 -11 6 -20 7
-20 3 0 -4 -13 -8 -30 -8 -16 0 -30 2 -30 5 0 3 -9 6 -20 6 -11 0 -20 -5 -20
-11 0 -6 -3 -7 -8 0 -4 6 -25 11 -47 11 -64 2 -132 11 -146 19 -8 5 -10 4 -5
-3 5 -9 0 -9 -21 -1 -15 6 -29 10 -30 10 -2 -1 -4 -1 -5 0 -2 0 -21 3 -43 5
-22 2 -41 8 -43 13 -2 5 -12 7 -22 4 -12 -3 -20 0 -20 6 0 7 -4 10 -8 7 -5 -3
-20 1 -35 9 -15 8 -27 12 -27 10 0 -3 -18 5 -40 16 -51 27 -81 64 -72 89 12
30 54 80 68 80 8 0 14 5 14 12 0 6 3 9 6 5 8 -7 33 15 28 25 -2 3 7 5 21 4 13
-2 22 1 19 5 -3 5 2 9 10 9 9 0 16 5 16 11 0 6 7 9 15 6 8 -4 17 -2 20 4 4 5
11 7 16 4 5 -4 12 0 15 8 3 8 13 14 22 13 9 -2 24 1 32 5 15 8 51 20 60 21 3
0 13 4 24 10 10 6 29 12 42 14 13 2 34 6 47 9 12 2 31 6 42 7 11 2 23 7 26 11
3 4 22 9 42 10 21 1 37 6 37 10 0 5 4 6 9 2 5 -3 12 -1 16 5 4 7 12 7 26 0 10
-6 19 -7 19 -2 0 4 10 9 23 9 52 3 104 10 114 16 16 10 23 -4 12 -25 -5 -10
-7 -23 -4 -28 3 -6 2 -10 -3 -10 -6 0 -9 -20 -8 -45 1 -25 -2 -45 -6 -45 -4 0
-5 -6 -3 -12 2 -7 6 -35 9 -63 9 -85 20 -120 40 -123 12 -3 16 0 11 7 -3 6
-12 9 -18 5 -7 -3 -5 0 4 8 9 7 15 22 13 33 -2 17 2 43 20 120 12 48 31 105
43 130 9 17 19 36 22 44 4 8 16 16 27 18 26 5 153 16 187 17 15 0 27 4 27 8 0
9 22 6 30 -4 3 -3 16 0 30 8 l25 14 -26 -6 c-15 -3 -30 -1 -34 5 -4 7 -12 8
-24 1 -10 -5 -21 -6 -25 -3 -11 11 -46 10 -39 0 4 -6 1 -7 -8 -1 -8 4 -41 10
-73 11 -32 2 -61 5 -63 7 -3 2 7 22 21 45 14 22 26 45 26 51 0 5 5 10 12 10 6
0 8 3 5 6 -4 4 3 20 14 35 11 16 17 29 12 29 -4 0 -3 4 3 8 10 7 78 121 79
132 0 3 4 11 8 18 5 6 6 16 3 21 -4 5 -1 11 4 13 14 4 25 107 16 143 -8 32
-72 98 -86 90 -6 -4 -10 -2 -10 3 0 5 -6 9 -12 10 -36 2 -123 11 -123 12 0 1
-45 3 -100 5 -101 3 -179 17 -190 35 -3 6 -15 10 -26 10 -11 0 -17 5 -14 10 3
6 1 10 -5 10 -17 0 -50 63 -50 96 0 38 19 94 32 94 5 0 6 5 3 10 -3 6 -1 10 4
10 6 0 11 7 11 15 0 8 4 15 9 15 5 0 19 15 32 34 13 19 27 32 31 30 4 -3 8 -2
8 3 0 4 14 23 31 41 16 17 27 32 24 32 -3 0 9 14 27 30 18 17 29 30 24 30 -5
0 -2 8 7 18 10 10 14 22 10 25 -3 4 -2 7 4 7 6 0 13 9 16 19 3 14 0 19 -13 18
-10 -1 -18 -4 -17 -7z"/>
<path d="M2316 2399 c3 -5 0 -9 -7 -9 -7 0 -9 -3 -6 -6 4 -4 14 -1 24 7 15 12
16 12 10 -3 -3 -10 -3 -17 1 -17 21 3 24 -3 6 -17 -18 -14 -18 -15 4 -4 26 13
27 16 6 38 -18 17 -48 26 -38 11z"/>
<path d="M2393 2380 c15 -12 24 -27 21 -32 -4 -7 -2 -8 5 -4 15 9 -1 32 -33
47 -13 6 -11 2 7 -11z"/>
<path d="M2434 2386 c1 -8 5 -18 8 -22 4 -3 5 1 4 10 -1 8 -5 18 -8 22 -4 3
-5 -1 -4 -10z"/>
<path d="M2455 2352 c-9 -9 -5 -32 5 -32 5 0 6 7 3 17 -4 10 -2 14 5 9 6 -3
13 -3 16 2 5 9 -20 12 -29 4z"/>
<path d="M2475 2310 c-16 -7 -17 -9 -3 -9 9 -1 20 4 23 9 7 11 7 11 -20 0z"/>
<path d="M2275 2278 c2 -10 -2 -21 -7 -25 -12 -7 18 -33 36 -33 6 1 0 7 -13
14 l-24 13 24 18 c14 10 17 15 7 12 -9 -3 -19 -1 -21 6 -2 7 -3 4 -2 -5z"/>
<path d="M2446 2281 c-19 -7 -19 -8 0 -13 13 -3 21 0 21 8 0 8 -1 14 -1 13 -1
0 -10 -4 -20 -8z"/>
<path d="M2820 1889 c0 -5 5 -7 10 -4 6 3 10 8 10 11 0 2 -4 4 -10 4 -5 0 -10
-5 -10 -11z"/>
<path d="M3335 1828 c-16 -5 -42 -10 -57 -13 -42 -6 -145 -55 -165 -78 -13
-15 -13 -18 -2 -9 9 6 20 8 24 4 5 -4 5 -2 1 5 -4 7 0 12 11 12 10 -1 31 2 47
6 73 16 175 7 225 -20 26 -13 67 -55 54 -55 -4 0 1 -6 12 -13 10 -8 15 -19 11
-25 -4 -7 -3 -12 2 -12 15 0 11 -132 -4 -162 -8 -16 -12 -28 -9 -28 4 0 0 -7
-7 -15 -29 -32 -39 -45 -33 -45 3 0 0 -6 -7 -14 -7 -8 -16 -12 -20 -9 -5 2 -8
-1 -8 -7 0 -6 -7 -18 -15 -26 -8 -9 -15 -13 -15 -9 0 3 -11 -6 -25 -20 -14
-14 -33 -25 -41 -25 -8 0 -13 -4 -9 -9 3 -5 -4 -13 -16 -16 -12 -4 -44 -20
-71 -36 -26 -16 -48 -26 -48 -23 0 3 -15 -4 -33 -15 -19 -11 -36 -18 -39 -16
-3 3 -10 -1 -17 -8 -9 -12 -3 -13 37 -10 26 2 72 9 102 16 30 6 60 12 67 12 6
0 15 4 19 8 4 4 16 7 26 7 10 0 18 4 18 9 0 8 37 24 53 22 4 -1 7 4 7 10 0 5
4 8 8 5 5 -3 23 8 42 24 19 16 39 26 44 23 6 -3 8 -3 4 2 -4 4 8 21 27 38 19
16 35 35 35 42 0 8 5 15 11 17 5 2 11 10 13 18 1 8 8 25 15 38 7 13 15 33 18
45 9 36 10 147 1 147 -4 0 -5 7 -1 16 3 9 1 19 -6 23 -7 4 -13 17 -14 29 0 12
-7 24 -14 26 -7 3 -13 12 -13 21 0 8 -5 15 -11 15 -5 0 -7 5 -4 10 4 6 1 9 -7
8 -7 -2 -12 3 -10 10 1 8 -2 11 -8 7 -5 -3 -10 -3 -10 2 0 11 -56 35 -86 37
-13 0 -24 5 -24 9 0 4 -8 3 -18 -2 -11 -6 -23 -6 -28 -2 -5 5 -22 4 -39 -1z"/>
</g>
</svg>
